<?xml version="1.0" encoding="UTF-8"?>
<svg id="Layer_1" xmlns="http://www.w3.org/2000/svg" version="1.1" viewBox="0 0 100 100">
  <!-- Generator: Adobe Illustrator 29.6.1, SVG Export Plug-In . SVG Version: 2.1.1 Build 9)  -->
  <defs>
    <style>
      .st0 {
        fill: #4169e1;
        stroke: #000;
        stroke-miterlimit: 10;
        stroke-width: 3px;
      }
    </style>
  </defs>
  <path class="st0" d="M20.6,38.4c1.6.2,4.2.4,7.3.4,9.8,0,12.8-1.7,21.5-2.1,7.3-.4,13.5-.7,19.3,3,1.2.7,7.7,4.9,7.3,10.3-.2,2.8-2.1,4.7-3.4,6-1.1,1.1-4.8,4.5-19.3,6.4-7.4,1-11.2,1.4-15.9,0-3.3-1-8.1-2.5-9.9-6.4-.9-1.9-.7-3.7-2.6-7.7-1.1-2.4-1.8-3.1-2.1-3.4-1.8-1.7-3.5-1.8-3.9-3-.2-.7,0-1.8,1.7-3.5Z"/>
</svg>