<?xml version="1.0" encoding="UTF-8"?>
<svg id="Layer_1" xmlns="http://www.w3.org/2000/svg" version="1.1" viewBox="0 0 100 100">
  <!-- Generator: Adobe Illustrator 29.6.1, SVG Export Plug-In . SVG Version: 2.1.1 Build 9)  -->
  <defs>
    <style>
      .st0 {
        fill: #fc6882;
        stroke: #000;
        stroke-miterlimit: 10;
        stroke-width: 3px;
      }
    </style>
  </defs>
  <path class="st0" d="M51.6,84.7c-1-.6-2.5-1.8-2.5-3.1v-9.8h-10.4c-.2,0-1.8-1.2-1.9-1.6-.8-1.5,0-4.4,1.6-4.4h10.8v-10.3c-18-2.5-23.5-26.5-8.3-36.9,15.8-10.7,35.7,3.9,31.2,22.3-1.8,7.1-9.1,14.1-16.4,14.6v10.3h10.8c1.6,0,2.5,2.9,1.6,4.4s-1.7,1.6-1.9,1.6h-10.4v9.4c0,1.5-1.2,2.7-2.5,3.4h-1.5ZM51.6,21.1c-18.9.9-17.2,30.6,2.4,28.7,17.8-1.7,16.3-29.6-2.4-28.7Z"/>
</svg>