<?xml version="1.0" encoding="UTF-8"?>
<svg id="Layer_1" xmlns="http://www.w3.org/2000/svg" version="1.1" viewBox="0 0 100 100">
  <!-- Generator: Adobe Illustrator 29.6.1, SVG Export Plug-In . SVG Version: 2.1.1 Build 9)  -->
  <defs>
    <style>
      .st0 {
        stroke: #fbbb48;
        stroke-miterlimit: 10;
        stroke-width: 7px;
      }

      .st1 {
        fill: #fbbb48;
      }
    </style>
  </defs>
  <circle class="st0" cx="50" cy="50.2" r="25.5"/>
  <path class="st1" d="M27.8,40.8c7.1.4,14.4.7,22,.9,8.3.2,16.3.2,24.1,0-.2,2.7-.5,5.3-.7,8-5.1.6-10.1,1.1-15.2,1.7-1.9,2.5-3.8,5-5.7,7.5.2,5.4.4,10.7.6,16.1-2.3-.2-4.6-.4-7-.6.5-5.3.9-10.6,1.4-15.9-1.5-2.1-3-4.3-4.5-6.4-5.3-1.1-10.5-2.2-15.8-3.4.4-2.7.6-5.4.8-8h0Z"/>
</svg>